# xmcd
#
# Track frame offsets: 
#        150
#        15695
#        35207
#        56967
#        70910
#        93067
#        109435
#        132230
#        150680
#        172700
#
# Disc length: 2618 seconds
#
# Revision: 1
# Processed by: cddbd v1.5.2PL0 Copyright (c) Steve Scherf et al.
# Submitted via: ExactAudioCopy v0.95b4
#
DISCID=840a380a
DTITLE=York, Bird - Bird York
DYEAR=1999
DGENRE=Pop/Rock
TTITLE0=Come Home
TTITLE1=What Are You Running After
TTITLE2=Open Wider
TTITLE3=Bought a Gun
TTITLE4=Save Me
TTITLE5=Prozac Day
TTITLE6=Punish Me with Kisses
TTITLE7=Strange Chemistry
TTITLE8=I'm Not Laughing Anymore
TTITLE9=Breathe Deeply
EXTD=YEAR: 1999
EXTT0=
EXTT1=
EXTT2=
EXTT3=
EXTT4=
EXTT5=
EXTT6=
EXTT7=
EXTT8=
EXTT9=
PLAYORDER=
